<?xml version="1.0" encoding="UTF-8" standalone="no"?>
<svg width="30px" height="30px" viewBox="0 0 30 30" version="1.1" xmlns="http://www.w3.org/2000/svg" xmlns:xlink="http://www.w3.org/1999/xlink" xmlns:sketch="http://www.bohemiancoding.com/sketch/ns">
    <!-- Generator: Sketch 3.4.1 (15681) - http://www.bohemiancoding.com/sketch -->
    <title>Group</title>
    <desc>Created with Sketch.</desc>
    <defs></defs>
    <g id="Page-1" stroke="none" stroke-width="1" fill="none" fill-rule="evenodd" sketch:type="MSPage">
        <g id="Artboard-5-Copy-4" sketch:type="MSArtboardGroup" stroke="#535353" stroke-width="0.1">
            <g id="Group" sketch:type="MSLayerGroup">
                <path d="M15.0320617,13.9679383 L15.9679383,13.0320617" id="Path-407" sketch:type="MSShapeGroup"></path>
                <path d="M2,13.9358766 L2.93587662,13" id="Path-407-Copy-3" sketch:type="MSShapeGroup"></path>
                <path d="M15,2.93587662 L15.9358766,2" id="Path-407-Copy-4" sketch:type="MSShapeGroup"></path>
                <path d="M19,27.9358766 L19.9358766,27" id="Path-407-Copy-5" sketch:type="MSShapeGroup"></path>
                <path d="M9,13.9358766 L9.93587662,13" id="Path-407-Copy-6" sketch:type="MSShapeGroup"></path>
                <path d="M10,14.9358766 L10.9358766,14" id="Path-407-Copy-7" sketch:type="MSShapeGroup"></path>
                <path d="M29,0.935876622 L29.9358766,0" id="Path-407-Copy-8" sketch:type="MSShapeGroup"></path>
                <path d="M21.6497087,20.5855854 L22.5855854,19.6497087" id="Path-407" sketch:type="MSShapeGroup"></path>
                <path d="M8.41441463,20.5855854 L9.35029125,19.6497087" id="Path-407" sketch:type="MSShapeGroup"></path>
                <path d="M21.6497087,7.35029125 L22.5855854,6.41441463" id="Path-407" sketch:type="MSShapeGroup"></path>
                <path d="M27,9.93587662 L27.9358766,9" id="Path-407-Copy" sketch:type="MSShapeGroup"></path>
                <path d="M20,27.9358766 L20.9358766,27" id="Path-407-Copy-27" sketch:type="MSShapeGroup"></path>
                <path d="M24,11.9358766 L24.9358766,11" id="Path-407-Copy-9" sketch:type="MSShapeGroup"></path>
                <path d="M22,8.93587662 L22.9358766,8" id="Path-407-Copy-10" sketch:type="MSShapeGroup"></path>
                <path d="M24,6.93587662 L24.9358766,6" id="Path-407-Copy-11" sketch:type="MSShapeGroup"></path>
                <path d="M21,8.93587662 L21.9358766,8" id="Path-407-Copy-12" sketch:type="MSShapeGroup"></path>
                <path d="M23,5.93587662 L23.9358766,5" id="Path-407-Copy-13" sketch:type="MSShapeGroup"></path>
                <path d="M21,4.93587662 L21.9358766,4" id="Path-407-Copy-14" sketch:type="MSShapeGroup"></path>
                <path d="M21,21.9358766 L21.9358766,21" id="Path-407-Copy-15" sketch:type="MSShapeGroup"></path>
                <path d="M16,21.9358766 L16.9358766,21" id="Path-407-Copy-16" sketch:type="MSShapeGroup"></path>
                <path d="M13,29.9358766 L13.9358766,29" id="Path-407-Copy-17" sketch:type="MSShapeGroup"></path>
                <path d="M28,29.9358766 L28.9358766,29" id="Path-407-Copy-18" sketch:type="MSShapeGroup"></path>
                <path d="M28,20.9358766 L28.9358766,20" id="Path-407-Copy-19" sketch:type="MSShapeGroup"></path>
                <path d="M13,8.93587662 L13.9358766,8" id="Path-407-Copy-20" sketch:type="MSShapeGroup"></path>
                <path d="M3,20.9358766 L3.93587662,20" id="Path-407-Copy-21" sketch:type="MSShapeGroup"></path>
                <path d="M5,25.9358766 L5.93587662,25" id="Path-407-Copy-22" sketch:type="MSShapeGroup"></path>
                <path d="M4,5.93587662 L4.93587662,5" id="Path-407-Copy-23" sketch:type="MSShapeGroup"></path>
                <path d="M7,1.93587662 L7.93587662,1" id="Path-407-Copy-24" sketch:type="MSShapeGroup"></path>
                <path d="M2,2.93587662 L2.93587662,2" id="Path-407-Copy-25" sketch:type="MSShapeGroup"></path>
                <path d="M0,9.93587662 L0.935876622,9" id="Path-407-Copy-26" sketch:type="MSShapeGroup"></path>
                <path d="M10,24.9358766 L10.9358766,24" id="Path-407-Copy-2" sketch:type="MSShapeGroup"></path>
                <path d="M8.41441463,7.35029125 L9.35029125,6.41441463" id="Path-407" sketch:type="MSShapeGroup"></path>
            </g>
        </g>
    </g>
</svg>