<?xml version="1.0" encoding="UTF-8" standalone="no"?>
<svg width="30px" height="30px" viewBox="0 0 30 30" version="1.1" xmlns="http://www.w3.org/2000/svg" xmlns:xlink="http://www.w3.org/1999/xlink" xmlns:sketch="http://www.bohemiancoding.com/sketch/ns">
    <!-- Generator: Sketch 3.4.1 (15681) - http://www.bohemiancoding.com/sketch -->
    <title>Group</title>
    <desc>Created with Sketch.</desc>
    <defs></defs>
    <g id="Page-1" stroke="none" stroke-width="1" fill="none" fill-rule="evenodd" sketch:type="MSPage">
        <g id="Artboard-5-Copy-5" sketch:type="MSArtboardGroup" stroke="#000000" stroke-width="0.1">
            <g id="Group" sketch:type="MSLayerGroup" transform="translate(0.000000, -1.000000)">
                <path d="M15.0320617,14.9679383 L15.9679383,14.0320617" id="Path-407-Copy-28" sketch:type="MSShapeGroup"></path>
                <path d="M2,14.9358766 L2.93587662,14" id="Path-407-Copy-3" sketch:type="MSShapeGroup"></path>
                <path d="M15,3.93587662 L15.9358766,3" id="Path-407-Copy-4" sketch:type="MSShapeGroup"></path>
                <path d="M19,28.9358766 L19.9358766,28" id="Path-407-Copy-5" sketch:type="MSShapeGroup"></path>
                <path d="M9,14.9358766 L9.93587662,14" id="Path-407-Copy-6" sketch:type="MSShapeGroup"></path>
                <path d="M10,15.9358766 L10.9358766,15" id="Path-407-Copy-7" sketch:type="MSShapeGroup"></path>
                <path d="M29,1.93587662 L29.9358766,1" id="Path-407-Copy-8" sketch:type="MSShapeGroup"></path>
                <path d="M21.6497087,21.5855854 L22.5855854,20.6497087" id="Path-407-Copy-29" sketch:type="MSShapeGroup"></path>
                <path d="M8.41441463,21.5855854 L9.35029125,20.6497087" id="Path-407-Copy-30" sketch:type="MSShapeGroup"></path>
                <path d="M21.6497087,8.35029125 L22.5855854,7.41441463" id="Path-407-Copy-31" sketch:type="MSShapeGroup"></path>
                <path d="M27,10.9358766 L27.9358766,10" id="Path-407-Copy" sketch:type="MSShapeGroup"></path>
                <path d="M20,28.9358766 L20.9358766,28" id="Path-407-Copy-27" sketch:type="MSShapeGroup"></path>
                <path d="M24,12.9358766 L24.9358766,12" id="Path-407-Copy-9" sketch:type="MSShapeGroup"></path>
                <path d="M22,9.93587662 L22.9358766,9" id="Path-407-Copy-10" sketch:type="MSShapeGroup"></path>
                <path d="M24,7.93587662 L24.9358766,7" id="Path-407-Copy-11" sketch:type="MSShapeGroup"></path>
                <path d="M21,9.93587662 L21.9358766,9" id="Path-407-Copy-12" sketch:type="MSShapeGroup"></path>
                <path d="M23,6.93587662 L23.9358766,6" id="Path-407-Copy-13" sketch:type="MSShapeGroup"></path>
                <path d="M21,5.93587662 L21.9358766,5" id="Path-407-Copy-14" sketch:type="MSShapeGroup"></path>
                <path d="M21,22.9358766 L21.9358766,22" id="Path-407-Copy-15" sketch:type="MSShapeGroup"></path>
                <path d="M16,22.9358766 L16.9358766,22" id="Path-407-Copy-16" sketch:type="MSShapeGroup"></path>
                <path d="M13,30.9358766 L13.9358766,30" id="Path-407-Copy-17" sketch:type="MSShapeGroup"></path>
                <path d="M28,30.9358766 L28.9358766,30" id="Path-407-Copy-18" sketch:type="MSShapeGroup"></path>
                <path d="M28,21.9358766 L28.9358766,21" id="Path-407-Copy-19" sketch:type="MSShapeGroup"></path>
                <path d="M13,9.93587662 L13.9358766,9" id="Path-407-Copy-20" sketch:type="MSShapeGroup"></path>
                <path d="M3,21.9358766 L3.93587662,21" id="Path-407-Copy-21" sketch:type="MSShapeGroup"></path>
                <path d="M5,26.9358766 L5.93587662,26" id="Path-407-Copy-22" sketch:type="MSShapeGroup"></path>
                <path d="M4,6.93587662 L4.93587662,6" id="Path-407-Copy-23" sketch:type="MSShapeGroup"></path>
                <path d="M7,2.93587662 L7.93587662,2" id="Path-407-Copy-24" sketch:type="MSShapeGroup"></path>
                <path d="M2,3.93587662 L2.93587662,3" id="Path-407-Copy-25" sketch:type="MSShapeGroup"></path>
                <path d="M0,10.9358766 L0.935876622,10" id="Path-407-Copy-26" sketch:type="MSShapeGroup"></path>
                <path d="M10,25.9358766 L10.9358766,25" id="Path-407-Copy-2" sketch:type="MSShapeGroup"></path>
                <path d="M8.41441463,8.35029125 L9.35029125,7.41441463" id="Path-407" sketch:type="MSShapeGroup"></path>
                <path d="M8,10.9358766 L8.93587662,10" id="Path-407-Copy-32" sketch:type="MSShapeGroup"></path>
                <path d="M17,6.93587662 L17.9358766,6" id="Path-407-Copy-34" sketch:type="MSShapeGroup"></path>
                <path d="M9,8.93587662 L9.93587662,8" id="Path-407-Copy-35" sketch:type="MSShapeGroup"></path>
                <path d="M10,8.93587662 L10.9358766,8" id="Path-407-Copy-36" sketch:type="MSShapeGroup"></path>
                <path d="M9,10.9358766 L9.93587662,10" id="Path-407-Copy-37" sketch:type="MSShapeGroup"></path>
            </g>
        </g>
    </g>
</svg>