<?xml version="1.0" encoding="UTF-8" standalone="no"?>
<svg width="34px" height="34px" viewBox="0 0 34 34" version="1.1" xmlns="http://www.w3.org/2000/svg" xmlns:xlink="http://www.w3.org/1999/xlink" xmlns:sketch="http://www.bohemiancoding.com/sketch/ns">
    <!-- Generator: Sketch 3.4.1 (15681) - http://www.bohemiancoding.com/sketch -->
    <title>Group</title>
    <desc>Created with Sketch.</desc>
    <defs></defs>
    <g id="Page-1" stroke="none" stroke-width="1" fill="none" fill-rule="evenodd" sketch:type="MSPage">
        <g id="Artboard-5-Copy" sketch:type="MSArtboardGroup" stroke="#979797" stroke-width="0.2">
            <g id="Group" sketch:type="MSLayerGroup">
                <path d="M1.9747487,2.08191201 L0.930477488,1.07187921 L1.06952251,0.928120793 L2.118587,1.94278972 L3.16765149,0.928120793 L3.30669651,1.07187921 L2.2624253,2.08191201 L3.30669651,3.09194482 L3.16765149,3.23570324 L2.118587,2.22103431 L1.06952251,3.23570324 L0.930477488,3.09194482 L1.9747487,2.08191201 Z" id="Path-5" sketch:type="MSShapeGroup"></path>
                <path d="M7.04427121,7.15379122 L6,6.14375841 L6.13904502,6 L7.18810951,7.01466893 L8.237174,6 L8.37621902,6.14375841 L7.33194781,7.15379122 L8.37621902,8.16382403 L8.237174,8.30758244 L7.18810951,7.29291351 L6.13904502,8.30758244 L6,8.16382403 L7.04427121,7.15379122 Z" id="Path-5-Copy-9" sketch:type="MSShapeGroup"></path>
                <path d="M12.0442712,2.15379122 L11,1.14375841 L11.139045,1 L12.1881095,2.01466893 L13.237174,1 L13.376219,1.14375841 L12.3319478,2.15379122 L13.376219,3.16382403 L13.237174,3.30758244 L12.1881095,2.29291351 L11.139045,3.30758244 L11,3.16382403 L12.0442712,2.15379122 Z" id="Path-5-Copy-3" sketch:type="MSShapeGroup"></path>
                <path d="M17.0442712,7.15379122 L16,6.14375841 L16.139045,6 L17.1881095,7.01466893 L18.237174,6 L18.376219,6.14375841 L17.3319478,7.15379122 L18.376219,8.16382403 L18.237174,8.30758244 L17.1881095,7.29291351 L16.139045,8.30758244 L16,8.16382403 L17.0442712,7.15379122 Z" id="Path-5-Copy-11" sketch:type="MSShapeGroup"></path>
                <path d="M22.0442712,2.15379122 L21,1.14375841 L21.139045,1 L22.1881095,2.01466893 L23.237174,1 L23.376219,1.14375841 L22.3319478,2.15379122 L23.376219,3.16382403 L23.237174,3.30758244 L22.1881095,2.29291351 L21.139045,3.30758244 L21,3.16382403 L22.0442712,2.15379122 Z" id="Path-5-Copy-5" sketch:type="MSShapeGroup"></path>
                <path d="M27.0442712,7.15379122 L26,6.14375841 L26.139045,6 L27.1881095,7.01466893 L28.237174,6 L28.376219,6.14375841 L27.3319478,7.15379122 L28.376219,8.16382403 L28.237174,8.30758244 L27.1881095,7.29291351 L26.139045,8.30758244 L26,8.16382403 L27.0442712,7.15379122 Z" id="Path-5-Copy-13" sketch:type="MSShapeGroup"></path>
                <path d="M32.0442712,2.15379122 L31,1.14375841 L31.139045,1 L32.1881095,2.01466893 L33.237174,1 L33.376219,1.14375841 L32.3319478,2.15379122 L33.376219,3.16382403 L33.237174,3.30758244 L32.1881095,2.29291351 L31.139045,3.30758244 L31,3.16382403 L32.0442712,2.15379122 Z" id="Path-5-Copy-15" sketch:type="MSShapeGroup"></path>
                <path d="M32.0442712,12.1537912 L31,11.1437584 L31.139045,11 L32.1881095,12.0146689 L33.237174,11 L33.376219,11.1437584 L32.3319478,12.1537912 L33.376219,13.163824 L33.237174,13.3075824 L32.1881095,12.2929135 L31.139045,13.3075824 L31,13.163824 L32.0442712,12.1537912 Z" id="Path-5-Copy-16" sketch:type="MSShapeGroup"></path>
                <path d="M32.0442712,22.1537912 L31,21.1437584 L31.139045,21 L32.1881095,22.0146689 L33.237174,21 L33.376219,21.1437584 L32.3319478,22.1537912 L33.376219,23.163824 L33.237174,23.3075824 L32.1881095,22.2929135 L31.139045,23.3075824 L31,23.163824 L32.0442712,22.1537912 Z" id="Path-5-Copy-18" sketch:type="MSShapeGroup"></path>
                <path d="M32.0442712,32.1537912 L31,31.1437584 L31.139045,31 L32.1881095,32.0146689 L33.237174,31 L33.376219,31.1437584 L32.3319478,32.1537912 L33.376219,33.163824 L33.237174,33.3075824 L32.1881095,32.2929135 L31.139045,33.3075824 L31,33.163824 L32.0442712,32.1537912 Z" id="Path-5-Copy-20" sketch:type="MSShapeGroup"></path>
                <path d="M2.04427121,12.1537912 L1,11.1437584 L1.13904502,11 L2.18810951,12.0146689 L3.237174,11 L3.37621902,11.1437584 L2.33194781,12.1537912 L3.37621902,13.163824 L3.237174,13.3075824 L2.18810951,12.2929135 L1.13904502,13.3075824 L1,13.163824 L2.04427121,12.1537912 Z" id="Path-5-Copy-21" sketch:type="MSShapeGroup"></path>
                <path d="M12.0442712,12.1537912 L11,11.1437584 L11.139045,11 L12.1881095,12.0146689 L13.237174,11 L13.376219,11.1437584 L12.3319478,12.1537912 L13.376219,13.163824 L13.237174,13.3075824 L12.1881095,12.2929135 L11.139045,13.3075824 L11,13.163824 L12.0442712,12.1537912 Z" id="Path-5-Copy-19" sketch:type="MSShapeGroup"></path>
                <path d="M22.0442712,12.1537912 L21,11.1437584 L21.139045,11 L22.1881095,12.0146689 L23.237174,11 L23.376219,11.1437584 L22.3319478,12.1537912 L23.376219,13.163824 L23.237174,13.3075824 L22.1881095,12.2929135 L21.139045,13.3075824 L21,13.163824 L22.0442712,12.1537912 Z" id="Path-5-Copy-17" sketch:type="MSShapeGroup"></path>
                <path d="M7.04427121,17.1537912 L6,16.1437584 L6.13904502,16 L7.18810951,17.0146689 L8.237174,16 L8.37621902,16.1437584 L7.33194781,17.1537912 L8.37621902,18.163824 L8.237174,18.3075824 L7.18810951,17.2929135 L6.13904502,18.3075824 L6,18.163824 L7.04427121,17.1537912 Z" id="Path-5-Copy-27" sketch:type="MSShapeGroup"></path>
                <path d="M17.0442712,17.1537912 L16,16.1437584 L16.139045,16 L17.1881095,17.0146689 L18.237174,16 L18.376219,16.1437584 L17.3319478,17.1537912 L18.376219,18.163824 L18.237174,18.3075824 L17.1881095,17.2929135 L16.139045,18.3075824 L16,18.163824 L17.0442712,17.1537912 Z" id="Path-5-Copy-25" sketch:type="MSShapeGroup"></path>
                <path d="M27.0442712,17.1537912 L26,16.1437584 L26.139045,16 L27.1881095,17.0146689 L28.237174,16 L28.376219,16.1437584 L27.3319478,17.1537912 L28.376219,18.163824 L28.237174,18.3075824 L27.1881095,17.2929135 L26.139045,18.3075824 L26,18.163824 L27.0442712,17.1537912 Z" id="Path-5-Copy-23" sketch:type="MSShapeGroup"></path>
                <path d="M2.04427121,22.1537912 L1,21.1437584 L1.13904502,21 L2.18810951,22.0146689 L3.237174,21 L3.37621902,21.1437584 L2.33194781,22.1537912 L3.37621902,23.163824 L3.237174,23.3075824 L2.18810951,22.2929135 L1.13904502,23.3075824 L1,23.163824 L2.04427121,22.1537912 Z" id="Path-5-Copy-35" sketch:type="MSShapeGroup"></path>
                <path d="M12.0442712,22.1537912 L11,21.1437584 L11.139045,21 L12.1881095,22.0146689 L13.237174,21 L13.376219,21.1437584 L12.3319478,22.1537912 L13.376219,23.163824 L13.237174,23.3075824 L12.1881095,22.2929135 L11.139045,23.3075824 L11,23.163824 L12.0442712,22.1537912 Z" id="Path-5-Copy-33" sketch:type="MSShapeGroup"></path>
                <path d="M22.0442712,22.1537912 L21,21.1437584 L21.139045,21 L22.1881095,22.0146689 L23.237174,21 L23.376219,21.1437584 L22.3319478,22.1537912 L23.376219,23.163824 L23.237174,23.3075824 L22.1881095,22.2929135 L21.139045,23.3075824 L21,23.163824 L22.0442712,22.1537912 Z" id="Path-5-Copy-31" sketch:type="MSShapeGroup"></path>
                <path d="M7.04427121,27.1537912 L6,26.1437584 L6.13904502,26 L7.18810951,27.0146689 L8.237174,26 L8.37621902,26.1437584 L7.33194781,27.1537912 L8.37621902,28.163824 L8.237174,28.3075824 L7.18810951,27.2929135 L6.13904502,28.3075824 L6,28.163824 L7.04427121,27.1537912 Z" id="Path-5-Copy-41" sketch:type="MSShapeGroup"></path>
                <path d="M17.0442712,27.1537912 L16,26.1437584 L16.139045,26 L17.1881095,27.0146689 L18.237174,26 L18.376219,26.1437584 L17.3319478,27.1537912 L18.376219,28.163824 L18.237174,28.3075824 L17.1881095,27.2929135 L16.139045,28.3075824 L16,28.163824 L17.0442712,27.1537912 Z" id="Path-5-Copy-39" sketch:type="MSShapeGroup"></path>
                <path d="M27.0442712,27.1537912 L26,26.1437584 L26.139045,26 L27.1881095,27.0146689 L28.237174,26 L28.376219,26.1437584 L27.3319478,27.1537912 L28.376219,28.163824 L28.237174,28.3075824 L27.1881095,27.2929135 L26.139045,28.3075824 L26,28.163824 L27.0442712,27.1537912 Z" id="Path-5-Copy-37" sketch:type="MSShapeGroup"></path>
                <path d="M2.04427121,32.1537912 L1,31.1437584 L1.13904502,31 L2.18810951,32.0146689 L3.237174,31 L3.37621902,31.1437584 L2.33194781,32.1537912 L3.37621902,33.163824 L3.237174,33.3075824 L2.18810951,32.2929135 L1.13904502,33.3075824 L1,33.163824 L2.04427121,32.1537912 Z" id="Path-5-Copy-49" sketch:type="MSShapeGroup"></path>
                <path d="M12.0442712,32.1537912 L11,31.1437584 L11.139045,31 L12.1881095,32.0146689 L13.237174,31 L13.376219,31.1437584 L12.3319478,32.1537912 L13.376219,33.163824 L13.237174,33.3075824 L12.1881095,32.2929135 L11.139045,33.3075824 L11,33.163824 L12.0442712,32.1537912 Z" id="Path-5-Copy-47" sketch:type="MSShapeGroup"></path>
                <path d="M22.0442712,32.1537912 L21,31.1437584 L21.139045,31 L22.1881095,32.0146689 L23.237174,31 L23.376219,31.1437584 L22.3319478,32.1537912 L23.376219,33.163824 L23.237174,33.3075824 L22.1881095,32.2929135 L21.139045,33.3075824 L21,33.163824 L22.0442712,32.1537912 Z" id="Path-5-Copy-45" sketch:type="MSShapeGroup"></path>
            </g>
        </g>
    </g>
</svg>