<?xml version="1.0" encoding="UTF-8" standalone="no"?>
<svg width="28px" height="30px" viewBox="0 0 28 30" version="1.1" xmlns="http://www.w3.org/2000/svg" xmlns:xlink="http://www.w3.org/1999/xlink" xmlns:sketch="http://www.bohemiancoding.com/sketch/ns">
    <!-- Generator: Sketch 3.4.1 (15681) - http://www.bohemiancoding.com/sketch -->
    <title>crosshatch copy</title>
    <desc>Created with Sketch.</desc>
    <defs></defs>
    <g id="Page-1" stroke="none" stroke-width="1" fill="none" fill-rule="evenodd" sketch:type="MSPage">
        <g id="Artboard-4" sketch:type="MSArtboardGroup" transform="translate(-2.000000, -1.000000)" stroke="#979797">
            <g id="crosshatch-copy" sketch:type="MSLayerGroup" transform="translate(2.000000, 2.000000)">
                <g id="Path-5-+-Path-5-Copy" sketch:type="MSShapeGroup">
                    <path d="M0,0 L2.237174,2.16382403" id="Path-5"></path>
                    <path d="M0,0 L2.237174,2.16382403" id="Path-5-Copy" transform="translate(1.118587, 1.081912) scale(-1, 1) translate(-1.118587, -1.081912) "></path>
                </g>
                <g id="Path-5-+-Path-5-Copy-8" transform="translate(0.000000, 3.672131)" sketch:type="MSShapeGroup">
                    <path d="M0,0 L2.237174,2.16382403" id="Path-5"></path>
                    <path d="M0,0 L2.237174,2.16382403" id="Path-5-Copy" transform="translate(1.118587, 1.081912) scale(-1, 1) translate(-1.118587, -1.081912) "></path>
                </g>
                <g id="Path-5-+-Path-5-Copy-2" transform="translate(4.271186, 0.000000)" sketch:type="MSShapeGroup">
                    <path d="M0,0 L2.237174,2.16382403" id="Path-5"></path>
                    <path d="M0,0 L2.237174,2.16382403" id="Path-5-Copy" transform="translate(1.118587, 1.081912) scale(-1, 1) translate(-1.118587, -1.081912) "></path>
                </g>
                <g id="Path-5-+-Path-5-Copy-9" transform="translate(4.271186, 3.672131)" sketch:type="MSShapeGroup">
                    <path d="M0,0 L2.237174,2.16382403" id="Path-5"></path>
                    <path d="M0,0 L2.237174,2.16382403" id="Path-5-Copy" transform="translate(1.118587, 1.081912) scale(-1, 1) translate(-1.118587, -1.081912) "></path>
                </g>
                <g id="Path-5-+-Path-5-Copy-3" transform="translate(8.542373, 0.000000)" sketch:type="MSShapeGroup">
                    <path d="M0,0 L2.237174,2.16382403" id="Path-5"></path>
                    <path d="M0,0 L2.237174,2.16382403" id="Path-5-Copy" transform="translate(1.118587, 1.081912) scale(-1, 1) translate(-1.118587, -1.081912) "></path>
                </g>
                <g id="Path-5-+-Path-5-Copy-10" transform="translate(8.542373, 3.672131)" sketch:type="MSShapeGroup">
                    <path d="M0,0 L2.237174,2.16382403" id="Path-5"></path>
                    <path d="M0,0 L2.237174,2.16382403" id="Path-5-Copy" transform="translate(1.118587, 1.081912) scale(-1, 1) translate(-1.118587, -1.081912) "></path>
                </g>
                <g id="Path-5-+-Path-5-Copy-4" transform="translate(12.813559, 0.000000)" sketch:type="MSShapeGroup">
                    <path d="M0,0 L2.237174,2.16382403" id="Path-5"></path>
                    <path d="M0,0 L2.237174,2.16382403" id="Path-5-Copy" transform="translate(1.118587, 1.081912) scale(-1, 1) translate(-1.118587, -1.081912) "></path>
                </g>
                <g id="Path-5-+-Path-5-Copy-11" transform="translate(12.813559, 3.672131)" sketch:type="MSShapeGroup">
                    <path d="M0,0 L2.237174,2.16382403" id="Path-5"></path>
                    <path d="M0,0 L2.237174,2.16382403" id="Path-5-Copy" transform="translate(1.118587, 1.081912) scale(-1, 1) translate(-1.118587, -1.081912) "></path>
                </g>
                <g id="Path-5-+-Path-5-Copy-5" transform="translate(17.084746, 0.000000)" sketch:type="MSShapeGroup">
                    <path d="M0,0 L2.237174,2.16382403" id="Path-5"></path>
                    <path d="M0,0 L2.237174,2.16382403" id="Path-5-Copy" transform="translate(1.118587, 1.081912) scale(-1, 1) translate(-1.118587, -1.081912) "></path>
                </g>
                <g id="Path-5-+-Path-5-Copy-12" transform="translate(17.084746, 3.672131)" sketch:type="MSShapeGroup">
                    <path d="M0,0 L2.237174,2.16382403" id="Path-5"></path>
                    <path d="M0,0 L2.237174,2.16382403" id="Path-5-Copy" transform="translate(1.118587, 1.081912) scale(-1, 1) translate(-1.118587, -1.081912) "></path>
                </g>
                <g id="Path-5-+-Path-5-Copy-6" transform="translate(21.355932, 0.000000)" sketch:type="MSShapeGroup">
                    <path d="M0,0 L2.237174,2.16382403" id="Path-5"></path>
                    <path d="M0,0 L2.237174,2.16382403" id="Path-5-Copy" transform="translate(1.118587, 1.081912) scale(-1, 1) translate(-1.118587, -1.081912) "></path>
                </g>
                <g id="Path-5-+-Path-5-Copy-13" transform="translate(21.355932, 3.672131)" sketch:type="MSShapeGroup">
                    <path d="M0,0 L2.237174,2.16382403" id="Path-5"></path>
                    <path d="M0,0 L2.237174,2.16382403" id="Path-5-Copy" transform="translate(1.118587, 1.081912) scale(-1, 1) translate(-1.118587, -1.081912) "></path>
                </g>
                <g id="Path-5-+-Path-5-Copy-7" transform="translate(25.627119, 0.000000)" sketch:type="MSShapeGroup">
                    <path d="M0,0 L2.237174,2.16382403" id="Path-5"></path>
                    <path d="M0,0 L2.237174,2.16382403" id="Path-5-Copy" transform="translate(1.118587, 1.081912) scale(-1, 1) translate(-1.118587, -1.081912) "></path>
                </g>
                <g id="Path-5-+-Path-5-Copy-14" transform="translate(25.627119, 3.672131)" sketch:type="MSShapeGroup">
                    <path d="M0,0 L2.237174,2.16382403" id="Path-5"></path>
                    <path d="M0,0 L2.237174,2.16382403" id="Path-5-Copy" transform="translate(1.118587, 1.081912) scale(-1, 1) translate(-1.118587, -1.081912) "></path>
                </g>
                <g id="Path-5-+-Path-5-Copy-21" transform="translate(0.000000, 7.344262)" sketch:type="MSShapeGroup">
                    <path d="M0,0 L2.237174,2.16382403" id="Path-5"></path>
                    <path d="M0,0 L2.237174,2.16382403" id="Path-5-Copy" transform="translate(1.118587, 1.081912) scale(-1, 1) translate(-1.118587, -1.081912) "></path>
                </g>
                <g id="Path-5-+-Path-5-Copy-20" transform="translate(4.271186, 7.344262)" sketch:type="MSShapeGroup">
                    <path d="M0,0 L2.237174,2.16382403" id="Path-5"></path>
                    <path d="M0,0 L2.237174,2.16382403" id="Path-5-Copy" transform="translate(1.118587, 1.081912) scale(-1, 1) translate(-1.118587, -1.081912) "></path>
                </g>
                <g id="Path-5-+-Path-5-Copy-19" transform="translate(8.542373, 7.344262)" sketch:type="MSShapeGroup">
                    <path d="M0,0 L2.237174,2.16382403" id="Path-5"></path>
                    <path d="M0,0 L2.237174,2.16382403" id="Path-5-Copy" transform="translate(1.118587, 1.081912) scale(-1, 1) translate(-1.118587, -1.081912) "></path>
                </g>
                <g id="Path-5-+-Path-5-Copy-18" transform="translate(12.813559, 7.344262)" sketch:type="MSShapeGroup">
                    <path d="M0,0 L2.237174,2.16382403" id="Path-5"></path>
                    <path d="M0,0 L2.237174,2.16382403" id="Path-5-Copy" transform="translate(1.118587, 1.081912) scale(-1, 1) translate(-1.118587, -1.081912) "></path>
                </g>
                <g id="Path-5-+-Path-5-Copy-17" transform="translate(17.084746, 7.344262)" sketch:type="MSShapeGroup">
                    <path d="M0,0 L2.237174,2.16382403" id="Path-5"></path>
                    <path d="M0,0 L2.237174,2.16382403" id="Path-5-Copy" transform="translate(1.118587, 1.081912) scale(-1, 1) translate(-1.118587, -1.081912) "></path>
                </g>
                <g id="Path-5-+-Path-5-Copy-16" transform="translate(21.355932, 7.344262)" sketch:type="MSShapeGroup">
                    <path d="M0,0 L2.237174,2.16382403" id="Path-5"></path>
                    <path d="M0,0 L2.237174,2.16382403" id="Path-5-Copy" transform="translate(1.118587, 1.081912) scale(-1, 1) translate(-1.118587, -1.081912) "></path>
                </g>
                <g id="Path-5-+-Path-5-Copy-15" transform="translate(25.627119, 7.344262)" sketch:type="MSShapeGroup">
                    <path d="M0,0 L2.237174,2.16382403" id="Path-5"></path>
                    <path d="M0,0 L2.237174,2.16382403" id="Path-5-Copy" transform="translate(1.118587, 1.081912) scale(-1, 1) translate(-1.118587, -1.081912) "></path>
                </g>
                <g id="Path-5-+-Path-5-Copy-28" transform="translate(0.000000, 11.016393)" sketch:type="MSShapeGroup">
                    <path d="M0,0 L2.237174,2.16382403" id="Path-5"></path>
                    <path d="M0,0 L2.237174,2.16382403" id="Path-5-Copy" transform="translate(1.118587, 1.081912) scale(-1, 1) translate(-1.118587, -1.081912) "></path>
                </g>
                <g id="Path-5-+-Path-5-Copy-27" transform="translate(4.271186, 11.016393)" sketch:type="MSShapeGroup">
                    <path d="M0,0 L2.237174,2.16382403" id="Path-5"></path>
                    <path d="M0,0 L2.237174,2.16382403" id="Path-5-Copy" transform="translate(1.118587, 1.081912) scale(-1, 1) translate(-1.118587, -1.081912) "></path>
                </g>
                <g id="Path-5-+-Path-5-Copy-26" transform="translate(8.542373, 11.016393)" sketch:type="MSShapeGroup">
                    <path d="M0,0 L2.237174,2.16382403" id="Path-5"></path>
                    <path d="M0,0 L2.237174,2.16382403" id="Path-5-Copy" transform="translate(1.118587, 1.081912) scale(-1, 1) translate(-1.118587, -1.081912) "></path>
                </g>
                <g id="Path-5-+-Path-5-Copy-25" transform="translate(12.813559, 11.016393)" sketch:type="MSShapeGroup">
                    <path d="M0,0 L2.237174,2.16382403" id="Path-5"></path>
                    <path d="M0,0 L2.237174,2.16382403" id="Path-5-Copy" transform="translate(1.118587, 1.081912) scale(-1, 1) translate(-1.118587, -1.081912) "></path>
                </g>
                <g id="Path-5-+-Path-5-Copy-24" transform="translate(17.084746, 11.016393)" sketch:type="MSShapeGroup">
                    <path d="M0,0 L2.237174,2.16382403" id="Path-5"></path>
                    <path d="M0,0 L2.237174,2.16382403" id="Path-5-Copy" transform="translate(1.118587, 1.081912) scale(-1, 1) translate(-1.118587, -1.081912) "></path>
                </g>
                <g id="Path-5-+-Path-5-Copy-23" transform="translate(21.355932, 11.016393)" sketch:type="MSShapeGroup">
                    <path d="M0,0 L2.237174,2.16382403" id="Path-5"></path>
                    <path d="M0,0 L2.237174,2.16382403" id="Path-5-Copy" transform="translate(1.118587, 1.081912) scale(-1, 1) translate(-1.118587, -1.081912) "></path>
                </g>
                <g id="Path-5-+-Path-5-Copy-22" transform="translate(25.627119, 11.016393)" sketch:type="MSShapeGroup">
                    <path d="M0,0 L2.237174,2.16382403" id="Path-5"></path>
                    <path d="M0,0 L2.237174,2.16382403" id="Path-5-Copy" transform="translate(1.118587, 1.081912) scale(-1, 1) translate(-1.118587, -1.081912) "></path>
                </g>
                <g id="Path-5-+-Path-5-Copy-35" transform="translate(0.000000, 14.688525)" sketch:type="MSShapeGroup">
                    <path d="M0,0 L2.237174,2.16382403" id="Path-5"></path>
                    <path d="M0,0 L2.237174,2.16382403" id="Path-5-Copy" transform="translate(1.118587, 1.081912) scale(-1, 1) translate(-1.118587, -1.081912) "></path>
                </g>
                <g id="Path-5-+-Path-5-Copy-34" transform="translate(4.271186, 14.688525)" sketch:type="MSShapeGroup">
                    <path d="M0,0 L2.237174,2.16382403" id="Path-5"></path>
                    <path d="M0,0 L2.237174,2.16382403" id="Path-5-Copy" transform="translate(1.118587, 1.081912) scale(-1, 1) translate(-1.118587, -1.081912) "></path>
                </g>
                <g id="Path-5-+-Path-5-Copy-33" transform="translate(8.542373, 14.688525)" sketch:type="MSShapeGroup">
                    <path d="M0,0 L2.237174,2.16382403" id="Path-5"></path>
                    <path d="M0,0 L2.237174,2.16382403" id="Path-5-Copy" transform="translate(1.118587, 1.081912) scale(-1, 1) translate(-1.118587, -1.081912) "></path>
                </g>
                <g id="Path-5-+-Path-5-Copy-32" transform="translate(12.813559, 14.688525)" sketch:type="MSShapeGroup">
                    <path d="M0,0 L2.237174,2.16382403" id="Path-5"></path>
                    <path d="M0,0 L2.237174,2.16382403" id="Path-5-Copy" transform="translate(1.118587, 1.081912) scale(-1, 1) translate(-1.118587, -1.081912) "></path>
                </g>
                <g id="Path-5-+-Path-5-Copy-31" transform="translate(17.084746, 14.688525)" sketch:type="MSShapeGroup">
                    <path d="M0,0 L2.237174,2.16382403" id="Path-5"></path>
                    <path d="M0,0 L2.237174,2.16382403" id="Path-5-Copy" transform="translate(1.118587, 1.081912) scale(-1, 1) translate(-1.118587, -1.081912) "></path>
                </g>
                <g id="Path-5-+-Path-5-Copy-30" transform="translate(21.355932, 14.688525)" sketch:type="MSShapeGroup">
                    <path d="M0,0 L2.237174,2.16382403" id="Path-5"></path>
                    <path d="M0,0 L2.237174,2.16382403" id="Path-5-Copy" transform="translate(1.118587, 1.081912) scale(-1, 1) translate(-1.118587, -1.081912) "></path>
                </g>
                <g id="Path-5-+-Path-5-Copy-29" transform="translate(25.627119, 14.688525)" sketch:type="MSShapeGroup">
                    <path d="M0,0 L2.237174,2.16382403" id="Path-5"></path>
                    <path d="M0,0 L2.237174,2.16382403" id="Path-5-Copy" transform="translate(1.118587, 1.081912) scale(-1, 1) translate(-1.118587, -1.081912) "></path>
                </g>
                <g id="Path-5-+-Path-5-Copy-42" transform="translate(0.000000, 18.360656)" sketch:type="MSShapeGroup">
                    <path d="M0,0 L2.237174,2.16382403" id="Path-5"></path>
                    <path d="M0,0 L2.237174,2.16382403" id="Path-5-Copy" transform="translate(1.118587, 1.081912) scale(-1, 1) translate(-1.118587, -1.081912) "></path>
                </g>
                <g id="Path-5-+-Path-5-Copy-41" transform="translate(4.271186, 18.360656)" sketch:type="MSShapeGroup">
                    <path d="M0,0 L2.237174,2.16382403" id="Path-5"></path>
                    <path d="M0,0 L2.237174,2.16382403" id="Path-5-Copy" transform="translate(1.118587, 1.081912) scale(-1, 1) translate(-1.118587, -1.081912) "></path>
                </g>
                <g id="Path-5-+-Path-5-Copy-40" transform="translate(8.542373, 18.360656)" sketch:type="MSShapeGroup">
                    <path d="M0,0 L2.237174,2.16382403" id="Path-5"></path>
                    <path d="M0,0 L2.237174,2.16382403" id="Path-5-Copy" transform="translate(1.118587, 1.081912) scale(-1, 1) translate(-1.118587, -1.081912) "></path>
                </g>
                <g id="Path-5-+-Path-5-Copy-39" transform="translate(12.813559, 18.360656)" sketch:type="MSShapeGroup">
                    <path d="M0,0 L2.237174,2.16382403" id="Path-5"></path>
                    <path d="M0,0 L2.237174,2.16382403" id="Path-5-Copy" transform="translate(1.118587, 1.081912) scale(-1, 1) translate(-1.118587, -1.081912) "></path>
                </g>
                <g id="Path-5-+-Path-5-Copy-38" transform="translate(17.084746, 18.360656)" sketch:type="MSShapeGroup">
                    <path d="M0,0 L2.237174,2.16382403" id="Path-5"></path>
                    <path d="M0,0 L2.237174,2.16382403" id="Path-5-Copy" transform="translate(1.118587, 1.081912) scale(-1, 1) translate(-1.118587, -1.081912) "></path>
                </g>
                <g id="Path-5-+-Path-5-Copy-37" transform="translate(21.355932, 18.360656)" sketch:type="MSShapeGroup">
                    <path d="M0,0 L2.237174,2.16382403" id="Path-5"></path>
                    <path d="M0,0 L2.237174,2.16382403" id="Path-5-Copy" transform="translate(1.118587, 1.081912) scale(-1, 1) translate(-1.118587, -1.081912) "></path>
                </g>
                <g id="Path-5-+-Path-5-Copy-36" transform="translate(25.627119, 18.360656)" sketch:type="MSShapeGroup">
                    <path d="M0,0 L2.237174,2.16382403" id="Path-5"></path>
                    <path d="M0,0 L2.237174,2.16382403" id="Path-5-Copy" transform="translate(1.118587, 1.081912) scale(-1, 1) translate(-1.118587, -1.081912) "></path>
                </g>
                <g id="Path-5-+-Path-5-Copy-49" transform="translate(0.000000, 22.032787)" sketch:type="MSShapeGroup">
                    <path d="M0,0 L2.237174,2.16382403" id="Path-5"></path>
                    <path d="M0,0 L2.237174,2.16382403" id="Path-5-Copy" transform="translate(1.118587, 1.081912) scale(-1, 1) translate(-1.118587, -1.081912) "></path>
                </g>
                <g id="Path-5-+-Path-5-Copy-48" transform="translate(4.271186, 22.032787)" sketch:type="MSShapeGroup">
                    <path d="M0,0 L2.237174,2.16382403" id="Path-5"></path>
                    <path d="M0,0 L2.237174,2.16382403" id="Path-5-Copy" transform="translate(1.118587, 1.081912) scale(-1, 1) translate(-1.118587, -1.081912) "></path>
                </g>
                <g id="Path-5-+-Path-5-Copy-47" transform="translate(8.542373, 22.032787)" sketch:type="MSShapeGroup">
                    <path d="M0,0 L2.237174,2.16382403" id="Path-5"></path>
                    <path d="M0,0 L2.237174,2.16382403" id="Path-5-Copy" transform="translate(1.118587, 1.081912) scale(-1, 1) translate(-1.118587, -1.081912) "></path>
                </g>
                <g id="Path-5-+-Path-5-Copy-46" transform="translate(12.813559, 22.032787)" sketch:type="MSShapeGroup">
                    <path d="M0,0 L2.237174,2.16382403" id="Path-5"></path>
                    <path d="M0,0 L2.237174,2.16382403" id="Path-5-Copy" transform="translate(1.118587, 1.081912) scale(-1, 1) translate(-1.118587, -1.081912) "></path>
                </g>
                <g id="Path-5-+-Path-5-Copy-45" transform="translate(17.084746, 22.032787)" sketch:type="MSShapeGroup">
                    <path d="M0,0 L2.237174,2.16382403" id="Path-5"></path>
                    <path d="M0,0 L2.237174,2.16382403" id="Path-5-Copy" transform="translate(1.118587, 1.081912) scale(-1, 1) translate(-1.118587, -1.081912) "></path>
                </g>
                <g id="Path-5-+-Path-5-Copy-44" transform="translate(21.355932, 22.032787)" sketch:type="MSShapeGroup">
                    <path d="M0,0 L2.237174,2.16382403" id="Path-5"></path>
                    <path d="M0,0 L2.237174,2.16382403" id="Path-5-Copy" transform="translate(1.118587, 1.081912) scale(-1, 1) translate(-1.118587, -1.081912) "></path>
                </g>
                <g id="Path-5-+-Path-5-Copy-43" transform="translate(25.627119, 22.032787)" sketch:type="MSShapeGroup">
                    <path d="M0,0 L2.237174,2.16382403" id="Path-5"></path>
                    <path d="M0,0 L2.237174,2.16382403" id="Path-5-Copy" transform="translate(1.118587, 1.081912) scale(-1, 1) translate(-1.118587, -1.081912) "></path>
                </g>
                <g id="Path-5-+-Path-5-Copy-56" transform="translate(0.000000, 25.704918)" sketch:type="MSShapeGroup">
                    <path d="M0,0 L2.237174,2.16382403" id="Path-5"></path>
                    <path d="M0,0 L2.237174,2.16382403" id="Path-5-Copy" transform="translate(1.118587, 1.081912) scale(-1, 1) translate(-1.118587, -1.081912) "></path>
                </g>
                <g id="Path-5-+-Path-5-Copy-55" transform="translate(4.271186, 25.704918)" sketch:type="MSShapeGroup">
                    <path d="M0,0 L2.237174,2.16382403" id="Path-5"></path>
                    <path d="M0,0 L2.237174,2.16382403" id="Path-5-Copy" transform="translate(1.118587, 1.081912) scale(-1, 1) translate(-1.118587, -1.081912) "></path>
                </g>
                <g id="Path-5-+-Path-5-Copy-54" transform="translate(8.542373, 25.704918)" sketch:type="MSShapeGroup">
                    <path d="M0,0 L2.237174,2.16382403" id="Path-5"></path>
                    <path d="M0,0 L2.237174,2.16382403" id="Path-5-Copy" transform="translate(1.118587, 1.081912) scale(-1, 1) translate(-1.118587, -1.081912) "></path>
                </g>
                <g id="Path-5-+-Path-5-Copy-53" transform="translate(12.813559, 25.704918)" sketch:type="MSShapeGroup">
                    <path d="M0,0 L2.237174,2.16382403" id="Path-5"></path>
                    <path d="M0,0 L2.237174,2.16382403" id="Path-5-Copy" transform="translate(1.118587, 1.081912) scale(-1, 1) translate(-1.118587, -1.081912) "></path>
                </g>
                <g id="Path-5-+-Path-5-Copy-52" transform="translate(17.084746, 25.704918)" sketch:type="MSShapeGroup">
                    <path d="M0,0 L2.237174,2.16382403" id="Path-5"></path>
                    <path d="M0,0 L2.237174,2.16382403" id="Path-5-Copy" transform="translate(1.118587, 1.081912) scale(-1, 1) translate(-1.118587, -1.081912) "></path>
                </g>
                <g id="Path-5-+-Path-5-Copy-51" transform="translate(21.355932, 25.704918)" sketch:type="MSShapeGroup">
                    <path d="M0,0 L2.237174,2.16382403" id="Path-5"></path>
                    <path d="M0,0 L2.237174,2.16382403" id="Path-5-Copy" transform="translate(1.118587, 1.081912) scale(-1, 1) translate(-1.118587, -1.081912) "></path>
                </g>
                <g id="Path-5-+-Path-5-Copy-50" transform="translate(25.627119, 25.704918)" sketch:type="MSShapeGroup">
                    <path d="M0,0 L2.237174,2.16382403" id="Path-5"></path>
                    <path d="M0,0 L2.237174,2.16382403" id="Path-5-Copy" transform="translate(1.118587, 1.081912) scale(-1, 1) translate(-1.118587, -1.081912) "></path>
                </g>
            </g>
        </g>
    </g>
</svg>