<?xml version="1.0" encoding="UTF-8" standalone="no"?>
<svg width="61px" height="62px" viewBox="0 0 61 62" version="1.1" xmlns="http://www.w3.org/2000/svg" xmlns:xlink="http://www.w3.org/1999/xlink" xmlns:sketch="http://www.bohemiancoding.com/sketch/ns">
    <!-- Generator: Sketch 3.4.1 (15681) - http://www.bohemiancoding.com/sketch -->
    <title>crosshatch</title>
    <desc>Created with Sketch.</desc>
    <defs></defs>
    <g id="Page-1" stroke="none" stroke-width="1" fill="none" fill-rule="evenodd" sketch:type="MSPage">
        <g id="Artboard-3" sketch:type="MSArtboardGroup" transform="translate(-2.000000, -2.000000)" stroke="#979797">
            <g id="crosshatch" sketch:type="MSLayerGroup" transform="translate(3.000000, 2.000000)">
                <g id="Path-5-+-Path-5-Copy" sketch:type="MSShapeGroup">
                    <path d="M0,0 L4.71404521,4.71404521" id="Path-5"></path>
                    <path d="M0,0 L4.71404521,4.71404521" id="Path-5-Copy" transform="translate(2.357023, 2.357023) scale(-1, 1) translate(-2.357023, -2.357023) "></path>
                </g>
                <g id="Path-5-+-Path-5-Copy-8" transform="translate(0.000000, 8.000000)" sketch:type="MSShapeGroup">
                    <path d="M0,0 L4.71404521,4.71404521" id="Path-5"></path>
                    <path d="M0,0 L4.71404521,4.71404521" id="Path-5-Copy" transform="translate(2.357023, 2.357023) scale(-1, 1) translate(-2.357023, -2.357023) "></path>
                </g>
                <g id="Path-5-+-Path-5-Copy-2" transform="translate(9.000000, 0.000000)" sketch:type="MSShapeGroup">
                    <path d="M0,0 L4.71404521,4.71404521" id="Path-5"></path>
                    <path d="M0,0 L4.71404521,4.71404521" id="Path-5-Copy" transform="translate(2.357023, 2.357023) scale(-1, 1) translate(-2.357023, -2.357023) "></path>
                </g>
                <g id="Path-5-+-Path-5-Copy-9" transform="translate(9.000000, 8.000000)" sketch:type="MSShapeGroup">
                    <path d="M0,0 L4.71404521,4.71404521" id="Path-5"></path>
                    <path d="M0,0 L4.71404521,4.71404521" id="Path-5-Copy" transform="translate(2.357023, 2.357023) scale(-1, 1) translate(-2.357023, -2.357023) "></path>
                </g>
                <g id="Path-5-+-Path-5-Copy-3" transform="translate(18.000000, 0.000000)" sketch:type="MSShapeGroup">
                    <path d="M0,0 L4.71404521,4.71404521" id="Path-5"></path>
                    <path d="M0,0 L4.71404521,4.71404521" id="Path-5-Copy" transform="translate(2.357023, 2.357023) scale(-1, 1) translate(-2.357023, -2.357023) "></path>
                </g>
                <g id="Path-5-+-Path-5-Copy-10" transform="translate(18.000000, 8.000000)" sketch:type="MSShapeGroup">
                    <path d="M0,0 L4.71404521,4.71404521" id="Path-5"></path>
                    <path d="M0,0 L4.71404521,4.71404521" id="Path-5-Copy" transform="translate(2.357023, 2.357023) scale(-1, 1) translate(-2.357023, -2.357023) "></path>
                </g>
                <g id="Path-5-+-Path-5-Copy-4" transform="translate(27.000000, 0.000000)" sketch:type="MSShapeGroup">
                    <path d="M0,0 L4.71404521,4.71404521" id="Path-5"></path>
                    <path d="M0,0 L4.71404521,4.71404521" id="Path-5-Copy" transform="translate(2.357023, 2.357023) scale(-1, 1) translate(-2.357023, -2.357023) "></path>
                </g>
                <g id="Path-5-+-Path-5-Copy-11" transform="translate(27.000000, 8.000000)" sketch:type="MSShapeGroup">
                    <path d="M0,0 L4.71404521,4.71404521" id="Path-5"></path>
                    <path d="M0,0 L4.71404521,4.71404521" id="Path-5-Copy" transform="translate(2.357023, 2.357023) scale(-1, 1) translate(-2.357023, -2.357023) "></path>
                </g>
                <g id="Path-5-+-Path-5-Copy-5" transform="translate(36.000000, 0.000000)" sketch:type="MSShapeGroup">
                    <path d="M0,0 L4.71404521,4.71404521" id="Path-5"></path>
                    <path d="M0,0 L4.71404521,4.71404521" id="Path-5-Copy" transform="translate(2.357023, 2.357023) scale(-1, 1) translate(-2.357023, -2.357023) "></path>
                </g>
                <g id="Path-5-+-Path-5-Copy-12" transform="translate(36.000000, 8.000000)" sketch:type="MSShapeGroup">
                    <path d="M0,0 L4.71404521,4.71404521" id="Path-5"></path>
                    <path d="M0,0 L4.71404521,4.71404521" id="Path-5-Copy" transform="translate(2.357023, 2.357023) scale(-1, 1) translate(-2.357023, -2.357023) "></path>
                </g>
                <g id="Path-5-+-Path-5-Copy-6" transform="translate(45.000000, 0.000000)" sketch:type="MSShapeGroup">
                    <path d="M0,0 L4.71404521,4.71404521" id="Path-5"></path>
                    <path d="M0,0 L4.71404521,4.71404521" id="Path-5-Copy" transform="translate(2.357023, 2.357023) scale(-1, 1) translate(-2.357023, -2.357023) "></path>
                </g>
                <g id="Path-5-+-Path-5-Copy-13" transform="translate(45.000000, 8.000000)" sketch:type="MSShapeGroup">
                    <path d="M0,0 L4.71404521,4.71404521" id="Path-5"></path>
                    <path d="M0,0 L4.71404521,4.71404521" id="Path-5-Copy" transform="translate(2.357023, 2.357023) scale(-1, 1) translate(-2.357023, -2.357023) "></path>
                </g>
                <g id="Path-5-+-Path-5-Copy-7" transform="translate(54.000000, 0.000000)" sketch:type="MSShapeGroup">
                    <path d="M0,0 L4.71404521,4.71404521" id="Path-5"></path>
                    <path d="M0,0 L4.71404521,4.71404521" id="Path-5-Copy" transform="translate(2.357023, 2.357023) scale(-1, 1) translate(-2.357023, -2.357023) "></path>
                </g>
                <g id="Path-5-+-Path-5-Copy-14" transform="translate(54.000000, 8.000000)" sketch:type="MSShapeGroup">
                    <path d="M0,0 L4.71404521,4.71404521" id="Path-5"></path>
                    <path d="M0,0 L4.71404521,4.71404521" id="Path-5-Copy" transform="translate(2.357023, 2.357023) scale(-1, 1) translate(-2.357023, -2.357023) "></path>
                </g>
                <g id="Path-5-+-Path-5-Copy-21" transform="translate(0.000000, 16.000000)" sketch:type="MSShapeGroup">
                    <path d="M0,0 L4.71404521,4.71404521" id="Path-5"></path>
                    <path d="M0,0 L4.71404521,4.71404521" id="Path-5-Copy" transform="translate(2.357023, 2.357023) scale(-1, 1) translate(-2.357023, -2.357023) "></path>
                </g>
                <g id="Path-5-+-Path-5-Copy-20" transform="translate(9.000000, 16.000000)" sketch:type="MSShapeGroup">
                    <path d="M0,0 L4.71404521,4.71404521" id="Path-5"></path>
                    <path d="M0,0 L4.71404521,4.71404521" id="Path-5-Copy" transform="translate(2.357023, 2.357023) scale(-1, 1) translate(-2.357023, -2.357023) "></path>
                </g>
                <g id="Path-5-+-Path-5-Copy-19" transform="translate(18.000000, 16.000000)" sketch:type="MSShapeGroup">
                    <path d="M0,0 L4.71404521,4.71404521" id="Path-5"></path>
                    <path d="M0,0 L4.71404521,4.71404521" id="Path-5-Copy" transform="translate(2.357023, 2.357023) scale(-1, 1) translate(-2.357023, -2.357023) "></path>
                </g>
                <g id="Path-5-+-Path-5-Copy-18" transform="translate(27.000000, 16.000000)" sketch:type="MSShapeGroup">
                    <path d="M0,0 L4.71404521,4.71404521" id="Path-5"></path>
                    <path d="M0,0 L4.71404521,4.71404521" id="Path-5-Copy" transform="translate(2.357023, 2.357023) scale(-1, 1) translate(-2.357023, -2.357023) "></path>
                </g>
                <g id="Path-5-+-Path-5-Copy-17" transform="translate(36.000000, 16.000000)" sketch:type="MSShapeGroup">
                    <path d="M0,0 L4.71404521,4.71404521" id="Path-5"></path>
                    <path d="M0,0 L4.71404521,4.71404521" id="Path-5-Copy" transform="translate(2.357023, 2.357023) scale(-1, 1) translate(-2.357023, -2.357023) "></path>
                </g>
                <g id="Path-5-+-Path-5-Copy-16" transform="translate(45.000000, 16.000000)" sketch:type="MSShapeGroup">
                    <path d="M0,0 L4.71404521,4.71404521" id="Path-5"></path>
                    <path d="M0,0 L4.71404521,4.71404521" id="Path-5-Copy" transform="translate(2.357023, 2.357023) scale(-1, 1) translate(-2.357023, -2.357023) "></path>
                </g>
                <g id="Path-5-+-Path-5-Copy-15" transform="translate(54.000000, 16.000000)" sketch:type="MSShapeGroup">
                    <path d="M0,0 L4.71404521,4.71404521" id="Path-5"></path>
                    <path d="M0,0 L4.71404521,4.71404521" id="Path-5-Copy" transform="translate(2.357023, 2.357023) scale(-1, 1) translate(-2.357023, -2.357023) "></path>
                </g>
                <g id="Path-5-+-Path-5-Copy-28" transform="translate(0.000000, 24.000000)" sketch:type="MSShapeGroup">
                    <path d="M0,0 L4.71404521,4.71404521" id="Path-5"></path>
                    <path d="M0,0 L4.71404521,4.71404521" id="Path-5-Copy" transform="translate(2.357023, 2.357023) scale(-1, 1) translate(-2.357023, -2.357023) "></path>
                </g>
                <g id="Path-5-+-Path-5-Copy-27" transform="translate(9.000000, 24.000000)" sketch:type="MSShapeGroup">
                    <path d="M0,0 L4.71404521,4.71404521" id="Path-5"></path>
                    <path d="M0,0 L4.71404521,4.71404521" id="Path-5-Copy" transform="translate(2.357023, 2.357023) scale(-1, 1) translate(-2.357023, -2.357023) "></path>
                </g>
                <g id="Path-5-+-Path-5-Copy-26" transform="translate(18.000000, 24.000000)" sketch:type="MSShapeGroup">
                    <path d="M0,0 L4.71404521,4.71404521" id="Path-5"></path>
                    <path d="M0,0 L4.71404521,4.71404521" id="Path-5-Copy" transform="translate(2.357023, 2.357023) scale(-1, 1) translate(-2.357023, -2.357023) "></path>
                </g>
                <g id="Path-5-+-Path-5-Copy-25" transform="translate(27.000000, 24.000000)" sketch:type="MSShapeGroup">
                    <path d="M0,0 L4.71404521,4.71404521" id="Path-5"></path>
                    <path d="M0,0 L4.71404521,4.71404521" id="Path-5-Copy" transform="translate(2.357023, 2.357023) scale(-1, 1) translate(-2.357023, -2.357023) "></path>
                </g>
                <g id="Path-5-+-Path-5-Copy-24" transform="translate(36.000000, 24.000000)" sketch:type="MSShapeGroup">
                    <path d="M0,0 L4.71404521,4.71404521" id="Path-5"></path>
                    <path d="M0,0 L4.71404521,4.71404521" id="Path-5-Copy" transform="translate(2.357023, 2.357023) scale(-1, 1) translate(-2.357023, -2.357023) "></path>
                </g>
                <g id="Path-5-+-Path-5-Copy-23" transform="translate(45.000000, 24.000000)" sketch:type="MSShapeGroup">
                    <path d="M0,0 L4.71404521,4.71404521" id="Path-5"></path>
                    <path d="M0,0 L4.71404521,4.71404521" id="Path-5-Copy" transform="translate(2.357023, 2.357023) scale(-1, 1) translate(-2.357023, -2.357023) "></path>
                </g>
                <g id="Path-5-+-Path-5-Copy-22" transform="translate(54.000000, 24.000000)" sketch:type="MSShapeGroup">
                    <path d="M0,0 L4.71404521,4.71404521" id="Path-5"></path>
                    <path d="M0,0 L4.71404521,4.71404521" id="Path-5-Copy" transform="translate(2.357023, 2.357023) scale(-1, 1) translate(-2.357023, -2.357023) "></path>
                </g>
                <g id="Path-5-+-Path-5-Copy-35" transform="translate(0.000000, 32.000000)" sketch:type="MSShapeGroup">
                    <path d="M0,0 L4.71404521,4.71404521" id="Path-5"></path>
                    <path d="M0,0 L4.71404521,4.71404521" id="Path-5-Copy" transform="translate(2.357023, 2.357023) scale(-1, 1) translate(-2.357023, -2.357023) "></path>
                </g>
                <g id="Path-5-+-Path-5-Copy-34" transform="translate(9.000000, 32.000000)" sketch:type="MSShapeGroup">
                    <path d="M0,0 L4.71404521,4.71404521" id="Path-5"></path>
                    <path d="M0,0 L4.71404521,4.71404521" id="Path-5-Copy" transform="translate(2.357023, 2.357023) scale(-1, 1) translate(-2.357023, -2.357023) "></path>
                </g>
                <g id="Path-5-+-Path-5-Copy-33" transform="translate(18.000000, 32.000000)" sketch:type="MSShapeGroup">
                    <path d="M0,0 L4.71404521,4.71404521" id="Path-5"></path>
                    <path d="M0,0 L4.71404521,4.71404521" id="Path-5-Copy" transform="translate(2.357023, 2.357023) scale(-1, 1) translate(-2.357023, -2.357023) "></path>
                </g>
                <g id="Path-5-+-Path-5-Copy-32" transform="translate(27.000000, 32.000000)" sketch:type="MSShapeGroup">
                    <path d="M0,0 L4.71404521,4.71404521" id="Path-5"></path>
                    <path d="M0,0 L4.71404521,4.71404521" id="Path-5-Copy" transform="translate(2.357023, 2.357023) scale(-1, 1) translate(-2.357023, -2.357023) "></path>
                </g>
                <g id="Path-5-+-Path-5-Copy-31" transform="translate(36.000000, 32.000000)" sketch:type="MSShapeGroup">
                    <path d="M0,0 L4.71404521,4.71404521" id="Path-5"></path>
                    <path d="M0,0 L4.71404521,4.71404521" id="Path-5-Copy" transform="translate(2.357023, 2.357023) scale(-1, 1) translate(-2.357023, -2.357023) "></path>
                </g>
                <g id="Path-5-+-Path-5-Copy-30" transform="translate(45.000000, 32.000000)" sketch:type="MSShapeGroup">
                    <path d="M0,0 L4.71404521,4.71404521" id="Path-5"></path>
                    <path d="M0,0 L4.71404521,4.71404521" id="Path-5-Copy" transform="translate(2.357023, 2.357023) scale(-1, 1) translate(-2.357023, -2.357023) "></path>
                </g>
                <g id="Path-5-+-Path-5-Copy-29" transform="translate(54.000000, 32.000000)" sketch:type="MSShapeGroup">
                    <path d="M0,0 L4.71404521,4.71404521" id="Path-5"></path>
                    <path d="M0,0 L4.71404521,4.71404521" id="Path-5-Copy" transform="translate(2.357023, 2.357023) scale(-1, 1) translate(-2.357023, -2.357023) "></path>
                </g>
                <g id="Path-5-+-Path-5-Copy-42" transform="translate(0.000000, 40.000000)" sketch:type="MSShapeGroup">
                    <path d="M0,0 L4.71404521,4.71404521" id="Path-5"></path>
                    <path d="M0,0 L4.71404521,4.71404521" id="Path-5-Copy" transform="translate(2.357023, 2.357023) scale(-1, 1) translate(-2.357023, -2.357023) "></path>
                </g>
                <g id="Path-5-+-Path-5-Copy-41" transform="translate(9.000000, 40.000000)" sketch:type="MSShapeGroup">
                    <path d="M0,0 L4.71404521,4.71404521" id="Path-5"></path>
                    <path d="M0,0 L4.71404521,4.71404521" id="Path-5-Copy" transform="translate(2.357023, 2.357023) scale(-1, 1) translate(-2.357023, -2.357023) "></path>
                </g>
                <g id="Path-5-+-Path-5-Copy-40" transform="translate(18.000000, 40.000000)" sketch:type="MSShapeGroup">
                    <path d="M0,0 L4.71404521,4.71404521" id="Path-5"></path>
                    <path d="M0,0 L4.71404521,4.71404521" id="Path-5-Copy" transform="translate(2.357023, 2.357023) scale(-1, 1) translate(-2.357023, -2.357023) "></path>
                </g>
                <g id="Path-5-+-Path-5-Copy-39" transform="translate(27.000000, 40.000000)" sketch:type="MSShapeGroup">
                    <path d="M0,0 L4.71404521,4.71404521" id="Path-5"></path>
                    <path d="M0,0 L4.71404521,4.71404521" id="Path-5-Copy" transform="translate(2.357023, 2.357023) scale(-1, 1) translate(-2.357023, -2.357023) "></path>
                </g>
                <g id="Path-5-+-Path-5-Copy-38" transform="translate(36.000000, 40.000000)" sketch:type="MSShapeGroup">
                    <path d="M0,0 L4.71404521,4.71404521" id="Path-5"></path>
                    <path d="M0,0 L4.71404521,4.71404521" id="Path-5-Copy" transform="translate(2.357023, 2.357023) scale(-1, 1) translate(-2.357023, -2.357023) "></path>
                </g>
                <g id="Path-5-+-Path-5-Copy-37" transform="translate(45.000000, 40.000000)" sketch:type="MSShapeGroup">
                    <path d="M0,0 L4.71404521,4.71404521" id="Path-5"></path>
                    <path d="M0,0 L4.71404521,4.71404521" id="Path-5-Copy" transform="translate(2.357023, 2.357023) scale(-1, 1) translate(-2.357023, -2.357023) "></path>
                </g>
                <g id="Path-5-+-Path-5-Copy-36" transform="translate(54.000000, 40.000000)" sketch:type="MSShapeGroup">
                    <path d="M0,0 L4.71404521,4.71404521" id="Path-5"></path>
                    <path d="M0,0 L4.71404521,4.71404521" id="Path-5-Copy" transform="translate(2.357023, 2.357023) scale(-1, 1) translate(-2.357023, -2.357023) "></path>
                </g>
                <g id="Path-5-+-Path-5-Copy-49" transform="translate(0.000000, 48.000000)" sketch:type="MSShapeGroup">
                    <path d="M0,0 L4.71404521,4.71404521" id="Path-5"></path>
                    <path d="M0,0 L4.71404521,4.71404521" id="Path-5-Copy" transform="translate(2.357023, 2.357023) scale(-1, 1) translate(-2.357023, -2.357023) "></path>
                </g>
                <g id="Path-5-+-Path-5-Copy-48" transform="translate(9.000000, 48.000000)" sketch:type="MSShapeGroup">
                    <path d="M0,0 L4.71404521,4.71404521" id="Path-5"></path>
                    <path d="M0,0 L4.71404521,4.71404521" id="Path-5-Copy" transform="translate(2.357023, 2.357023) scale(-1, 1) translate(-2.357023, -2.357023) "></path>
                </g>
                <g id="Path-5-+-Path-5-Copy-47" transform="translate(18.000000, 48.000000)" sketch:type="MSShapeGroup">
                    <path d="M0,0 L4.71404521,4.71404521" id="Path-5"></path>
                    <path d="M0,0 L4.71404521,4.71404521" id="Path-5-Copy" transform="translate(2.357023, 2.357023) scale(-1, 1) translate(-2.357023, -2.357023) "></path>
                </g>
                <g id="Path-5-+-Path-5-Copy-46" transform="translate(27.000000, 48.000000)" sketch:type="MSShapeGroup">
                    <path d="M0,0 L4.71404521,4.71404521" id="Path-5"></path>
                    <path d="M0,0 L4.71404521,4.71404521" id="Path-5-Copy" transform="translate(2.357023, 2.357023) scale(-1, 1) translate(-2.357023, -2.357023) "></path>
                </g>
                <g id="Path-5-+-Path-5-Copy-45" transform="translate(36.000000, 48.000000)" sketch:type="MSShapeGroup">
                    <path d="M0,0 L4.71404521,4.71404521" id="Path-5"></path>
                    <path d="M0,0 L4.71404521,4.71404521" id="Path-5-Copy" transform="translate(2.357023, 2.357023) scale(-1, 1) translate(-2.357023, -2.357023) "></path>
                </g>
                <g id="Path-5-+-Path-5-Copy-44" transform="translate(45.000000, 48.000000)" sketch:type="MSShapeGroup">
                    <path d="M0,0 L4.71404521,4.71404521" id="Path-5"></path>
                    <path d="M0,0 L4.71404521,4.71404521" id="Path-5-Copy" transform="translate(2.357023, 2.357023) scale(-1, 1) translate(-2.357023, -2.357023) "></path>
                </g>
                <g id="Path-5-+-Path-5-Copy-43" transform="translate(54.000000, 48.000000)" sketch:type="MSShapeGroup">
                    <path d="M0,0 L4.71404521,4.71404521" id="Path-5"></path>
                    <path d="M0,0 L4.71404521,4.71404521" id="Path-5-Copy" transform="translate(2.357023, 2.357023) scale(-1, 1) translate(-2.357023, -2.357023) "></path>
                </g>
                <g id="Path-5-+-Path-5-Copy-56" transform="translate(0.000000, 56.000000)" sketch:type="MSShapeGroup">
                    <path d="M0,0 L4.71404521,4.71404521" id="Path-5"></path>
                    <path d="M0,0 L4.71404521,4.71404521" id="Path-5-Copy" transform="translate(2.357023, 2.357023) scale(-1, 1) translate(-2.357023, -2.357023) "></path>
                </g>
                <g id="Path-5-+-Path-5-Copy-55" transform="translate(9.000000, 56.000000)" sketch:type="MSShapeGroup">
                    <path d="M0,0 L4.71404521,4.71404521" id="Path-5"></path>
                    <path d="M0,0 L4.71404521,4.71404521" id="Path-5-Copy" transform="translate(2.357023, 2.357023) scale(-1, 1) translate(-2.357023, -2.357023) "></path>
                </g>
                <g id="Path-5-+-Path-5-Copy-54" transform="translate(18.000000, 56.000000)" sketch:type="MSShapeGroup">
                    <path d="M0,0 L4.71404521,4.71404521" id="Path-5"></path>
                    <path d="M0,0 L4.71404521,4.71404521" id="Path-5-Copy" transform="translate(2.357023, 2.357023) scale(-1, 1) translate(-2.357023, -2.357023) "></path>
                </g>
                <g id="Path-5-+-Path-5-Copy-53" transform="translate(27.000000, 56.000000)" sketch:type="MSShapeGroup">
                    <path d="M0,0 L4.71404521,4.71404521" id="Path-5"></path>
                    <path d="M0,0 L4.71404521,4.71404521" id="Path-5-Copy" transform="translate(2.357023, 2.357023) scale(-1, 1) translate(-2.357023, -2.357023) "></path>
                </g>
                <g id="Path-5-+-Path-5-Copy-52" transform="translate(36.000000, 56.000000)" sketch:type="MSShapeGroup">
                    <path d="M0,0 L4.71404521,4.71404521" id="Path-5"></path>
                    <path d="M0,0 L4.71404521,4.71404521" id="Path-5-Copy" transform="translate(2.357023, 2.357023) scale(-1, 1) translate(-2.357023, -2.357023) "></path>
                </g>
                <g id="Path-5-+-Path-5-Copy-51" transform="translate(45.000000, 56.000000)" sketch:type="MSShapeGroup">
                    <path d="M0,0 L4.71404521,4.71404521" id="Path-5"></path>
                    <path d="M0,0 L4.71404521,4.71404521" id="Path-5-Copy" transform="translate(2.357023, 2.357023) scale(-1, 1) translate(-2.357023, -2.357023) "></path>
                </g>
                <g id="Path-5-+-Path-5-Copy-50" transform="translate(54.000000, 56.000000)" sketch:type="MSShapeGroup">
                    <path d="M0,0 L4.71404521,4.71404521" id="Path-5"></path>
                    <path d="M0,0 L4.71404521,4.71404521" id="Path-5-Copy" transform="translate(2.357023, 2.357023) scale(-1, 1) translate(-2.357023, -2.357023) "></path>
                </g>
            </g>
        </g>
    </g>
</svg>