<?xml version="1.0" encoding="UTF-8" standalone="no"?>
<svg width="92px" height="95px" viewBox="0 0 92 95" version="1.1" xmlns="http://www.w3.org/2000/svg" xmlns:xlink="http://www.w3.org/1999/xlink" xmlns:sketch="http://www.bohemiancoding.com/sketch/ns">
    <!-- Generator: Sketch 3.4.1 (15681) - http://www.bohemiancoding.com/sketch -->
    <title>texture1</title>
    <desc>Created with Sketch.</desc>
    <defs></defs>
    <g id="Page-1" stroke="none" stroke-width="1" fill="none" fill-rule="evenodd" sketch:type="MSPage">
        <g id="Artboard-1" sketch:type="MSArtboardGroup" transform="translate(-17.000000, -14.000000)" fill="#979797">
            <g id="texture1" sketch:type="MSLayerGroup" transform="translate(17.000000, 14.000000)">
                <ellipse id="Oval-1" sketch:type="MSShapeGroup" cx="3.864" cy="6.02884615" rx="2.024" ry="2.00961538"></ellipse>
                <ellipse id="Oval-1-Copy" sketch:type="MSShapeGroup" cx="19.32" cy="20.6442308" rx="2.024" ry="2.00961538"></ellipse>
                <ellipse id="Oval-1-Copy-2" sketch:type="MSShapeGroup" cx="7.912" cy="38.5480769" rx="2.024" ry="2.00961538"></ellipse>
                <ellipse id="Oval-1-Copy-3" sketch:type="MSShapeGroup" cx="57.96" cy="56.0865385" rx="2.024" ry="2.00961538"></ellipse>
                <ellipse id="Oval-1-Copy-4" sketch:type="MSShapeGroup" cx="27.784" cy="34.5288462" rx="2.024" ry="2.00961538"></ellipse>
                <ellipse id="Oval-1-Copy-5" sketch:type="MSShapeGroup" cx="23.736" cy="24.6634615" rx="2.024" ry="2.00961538"></ellipse>
                <ellipse id="Oval-1-Copy-6" sketch:type="MSShapeGroup" cx="17.48" cy="52.0673077" rx="2.024" ry="2.00961538"></ellipse>
                <ellipse id="Oval-1-Copy-7" sketch:type="MSShapeGroup" cx="46.552" cy="18.8173077" rx="2.024" ry="2.00961538"></ellipse>
                <ellipse id="Oval-1-Copy-8" sketch:type="MSShapeGroup" cx="80.408" cy="32.7019231" rx="2.024" ry="2.00961538"></ellipse>
                <ellipse id="Oval-1-Copy-9" sketch:type="MSShapeGroup" cx="67.16" cy="82.7596154" rx="2.024" ry="2.00961538"></ellipse>
                <ellipse id="Oval-1-Copy-10" sketch:type="MSShapeGroup" cx="35.144" cy="65.9519231" rx="2.024" ry="2.00961538"></ellipse>
                <ellipse id="Oval-1-Copy-11" sketch:type="MSShapeGroup" cx="63.112" cy="22.8365385" rx="2.024" ry="2.00961538"></ellipse>
                <ellipse id="Oval-1-Copy-12" sketch:type="MSShapeGroup" cx="46.552" cy="40.7403846" rx="2.024" ry="2.00961538"></ellipse>
                <ellipse id="Oval-1-Copy-13" sketch:type="MSShapeGroup" cx="69.368" cy="8.22115385" rx="2.024" ry="2.00961538"></ellipse>
                <ellipse id="Oval-1-Copy-14" sketch:type="MSShapeGroup" cx="31.832" cy="4.20192308" rx="2.024" ry="2.00961538"></ellipse>
                <ellipse id="Oval-1-Copy-15" sketch:type="MSShapeGroup" cx="80.408" cy="61.9326923" rx="2.024" ry="2.00961538"></ellipse>
                <ellipse id="Oval-1-Copy-16" sketch:type="MSShapeGroup" cx="33.304" cy="86.7788462" rx="2.024" ry="2.00961538"></ellipse>
                <ellipse id="Oval-1-Copy-17" sketch:type="MSShapeGroup" cx="10.12" cy="69.9711538" rx="2.024" ry="2.00961538"></ellipse>
                <ellipse id="Oval-1-Copy-18" sketch:type="MSShapeGroup" cx="2.024" cy="54.2596154" rx="2.024" ry="2.00961538"></ellipse>
                <ellipse id="Oval-1-Copy-19" sketch:type="MSShapeGroup" cx="53.912" cy="84.9519231" rx="2.024" ry="2.00961538"></ellipse>
                <ellipse id="Oval-1-Copy-20" sketch:type="MSShapeGroup" cx="50.6" cy="72.1634615" rx="2.024" ry="2.00961538"></ellipse>
                <ellipse id="Oval-1-Copy-21" sketch:type="MSShapeGroup" cx="62.008" cy="80.9326923" rx="2.024" ry="2.00961538"></ellipse>
                <ellipse id="Oval-1-Copy-22" sketch:type="MSShapeGroup" cx="63.112" cy="72.1634615" rx="2.024" ry="2.00961538"></ellipse>
                <ellipse id="Oval-1-Copy-23" sketch:type="MSShapeGroup" cx="63.112" cy="56.4519231" rx="2.024" ry="2.00961538"></ellipse>
                <ellipse id="Oval-1-Copy-24" sketch:type="MSShapeGroup" cx="63.112" cy="28.6826923" rx="2.024" ry="2.00961538"></ellipse>
                <ellipse id="Oval-1-Copy-25" sketch:type="MSShapeGroup" cx="67.528" cy="22.8365385" rx="2.024" ry="2.00961538"></ellipse>
                <ellipse id="Oval-1-Copy-26" sketch:type="MSShapeGroup" cx="84.456" cy="36.7211538" rx="2.024" ry="2.00961538"></ellipse>
                <ellipse id="Oval-1-Copy-27" sketch:type="MSShapeGroup" cx="53.912" cy="42.9326923" rx="2.024" ry="2.00961538"></ellipse>
                <ellipse id="Oval-1-Copy-28" sketch:type="MSShapeGroup" cx="50.6" cy="14.7980769" rx="2.024" ry="2.00961538"></ellipse>
                <ellipse id="Oval-1-Copy-29" sketch:type="MSShapeGroup" cx="15.272" cy="90.7980769" rx="2.024" ry="2.00961538"></ellipse>
                <ellipse id="Oval-1-Copy-30" sketch:type="MSShapeGroup" cx="84.456" cy="70.3365385" rx="2.024" ry="2.00961538"></ellipse>
                <ellipse id="Oval-1-Copy-31" sketch:type="MSShapeGroup" cx="80.408" cy="92.9903846" rx="2.024" ry="2.00961538"></ellipse>
                <ellipse id="Oval-1-Copy-32" sketch:type="MSShapeGroup" cx="86.664" cy="54.625" rx="2.024" ry="2.00961538"></ellipse>
                <ellipse id="Oval-1-Copy-33" sketch:type="MSShapeGroup" cx="80.408" cy="14.7980769" rx="2.024" ry="2.00961538"></ellipse>
                <ellipse id="Oval-1-Copy-38" sketch:type="MSShapeGroup" cx="39.024" cy="31.0096154" rx="2.024" ry="2.00961538"></ellipse>
                <ellipse id="Oval-1-Copy-39" sketch:type="MSShapeGroup" cx="4.024" cy="27.0096154" rx="2.024" ry="2.00961538"></ellipse>
                <ellipse id="Oval-1-Copy-40" sketch:type="MSShapeGroup" cx="17.296" cy="33.0096154" rx="2.024" ry="2.00961538"></ellipse>
                <ellipse id="Oval-1-Copy-41" sketch:type="MSShapeGroup" cx="12.024" cy="50.0576923" rx="2.024" ry="2.00961538"></ellipse>
                <ellipse id="Oval-1-Copy-42" sketch:type="MSShapeGroup" cx="20.024" cy="47.0096154" rx="2.024" ry="2.00961538"></ellipse>
                <ellipse id="Oval-1-Copy-43" sketch:type="MSShapeGroup" cx="18.024" cy="64.4903846" rx="2.024" ry="2.00961538"></ellipse>
                <ellipse id="Oval-1-Copy-44" sketch:type="MSShapeGroup" cx="14.024" cy="74.0096154" rx="2.024" ry="2.00961538"></ellipse>
                <ellipse id="Oval-1-Copy-45" sketch:type="MSShapeGroup" cx="32.024" cy="62.0096154" rx="2.024" ry="2.00961538"></ellipse>
                <ellipse id="Oval-1-Copy-46" sketch:type="MSShapeGroup" cx="34.024" cy="78.9230769" rx="2.024" ry="2.00961538"></ellipse>
                <ellipse id="Oval-1-Copy-47" sketch:type="MSShapeGroup" cx="38.024" cy="93.0096154" rx="2.024" ry="2.00961538"></ellipse>
                <ellipse id="Oval-1-Copy-48" sketch:type="MSShapeGroup" cx="55.936" cy="79.0096154" rx="2.024" ry="2.00961538"></ellipse>
                <ellipse id="Oval-1-Copy-34" sketch:type="MSShapeGroup" cx="89.976" cy="2.00961538" rx="2.024" ry="2.00961538"></ellipse>
                <ellipse id="Oval-1-Copy-35" sketch:type="MSShapeGroup" cx="37.352" cy="60.1057692" rx="2.024" ry="2.00961538"></ellipse>
                <ellipse id="Oval-1-Copy-36" sketch:type="MSShapeGroup" cx="29.256" cy="68.5096154" rx="2.024" ry="2.00961538"></ellipse>
                <ellipse id="Oval-1-Copy-37" sketch:type="MSShapeGroup" cx="31.096" cy="41.1057692" rx="2.024" ry="2.00961538"></ellipse>
            </g>
        </g>
    </g>
</svg>